PathFileType	4	(X/Y/Z)	D:\TRACE\spot_10-12-23\spot_body_motion_2_3-v60.trc
DataRate	CameraRate	NumFrames	NumMarkers	Units	OrigDataRate	OrigDataStartFrame	OrigNumFrames
100.00	100.00	      21	9	mm	100.00	6126	      7000
Frame#	Time	front left toe			Front right toe			aft left toe			aft right toe			Arm			FL body			FR body			AL Body			AR Body			
		X1	Y1	Z1	X2	Y2	Z2	X3	Y3	Z3	X4	Y4	Z4	X5	Y5	Z5	X6	Y6	Z6	X7	Y7	Z7	X8	Y8	Z8	X9	Y9	Z9	

6126	61.250	-20.88449	19.25609	-1.88461	518.28241	30.16400	69.33868	-159.71820	-14.96652	425.99609	322.00778	-22.17957	520.36749	213.06996	802.49194	-174.81346	121.74966	541.41522	-174.55354	271.26639	544.34546	-142.20837	-68.89733	553.10406	689.05536	77.25043	549.72797	722.79211	
6127	61.260	-20.36284	18.78467	-1.53186	518.21039	30.44017	69.66973	-160.79651	-14.58545	425.60709	321.76703	-22.56153	520.49109	213.31255	802.96851	-173.21149	121.91374	541.79913	-173.52179	271.22653	544.66229	-141.19394	-68.47744	551.83984	690.33008	78.18607	548.72778	723.98541	
6128	61.270	-21.35073	19.36745	-1.41732	518.03186	30.43670	70.02590	-161.36127	-14.90428	425.89719	321.55484	-23.00158	520.72467	213.60446	803.19818	-171.45865	122.05577	542.16241	-172.30077	271.36520	544.77460	-139.90454	-68.06255	550.97107	691.54175	78.35687	547.48022	725.38800	
6129	61.280	-22.42177	19.76559	-1.18139	517.72736	30.63642	70.55513	-161.52644	-15.04228	425.86865	321.28391	-23.35186	520.81348	213.99202	803.51508	-169.88278	121.94803	542.72424	-171.01843	271.06699	545.25623	-139.07825	-67.69779	549.89777	692.77563	78.62507	546.22198	726.57489	
6130	61.290	-22.18932	19.49324	-0.98896	517.34106	30.29892	70.32238	-162.01334	-15.43834	426.01303	320.87216	-23.65869	521.13751	214.16959	803.75537	-168.23508	122.08434	542.70142	-169.70613	271.33099	545.59503	-137.97806	-67.56397	548.94928	693.93451	78.78854	545.13721	727.79846	
6131	61.300	-22.52856	19.41581	-0.82546	516.78931	30.07599	70.20100	-162.43953	-15.69735	426.19354	320.42096	-24.52945	521.67981	214.56554	803.93127	-166.72473	122.14469	543.19598	-168.56616	271.56503	545.46198	-136.59024	-66.97287	547.84460	695.30090	79.12383	543.87323	729.14886	
6132	61.310	-23.00478	19.52085	-0.70508	516.24023	29.90257	70.48614	-162.99692	-15.78471	426.36783	319.92639	-24.50151	522.20325	214.98561	804.13806	-164.83405	122.25520	543.48682	-167.44456	271.46841	545.69977	-135.53374	-66.71114	546.85754	696.77252	79.09003	542.68054	730.21307	
6133	61.320	-23.51774	19.70742	-0.53904	515.84283	29.76294	70.65756	-162.77829	-16.32050	427.04404	318.90125	-24.76816	521.64246	215.37709	804.46692	-163.28368	122.67011	543.48517	-165.88481	271.51547	545.84381	-134.39255	-66.35245	545.83154	698.04846	79.89545	541.63647	731.54681	
6134	61.330	-23.99714	19.82000	-0.37193	515.40448	29.55640	70.79321	-162.68919	-16.77651	427.39954	318.51703	-25.07775	521.76965	215.27086	804.79889	-161.58969	122.67976	544.21698	-164.73631	271.66290	545.99414	-133.06711	-66.31948	545.17279	699.30475	80.76131	540.70398	733.02252	
6135	61.340	-24.44292	19.95021	-0.15650	514.92114	29.60013	70.90028	-163.17831	-16.85155	427.49707	318.30450	-25.62210	521.70898	215.48344	805.08643	-159.95341	122.77006	544.59338	-163.50797	272.28601	546.19672	-131.65968	-65.92730	543.97699	700.58899	80.64420	538.93915	734.22491	
6136	61.350	-24.78106	19.96109	-0.03332	514.44263	29.51112	71.09048	-164.11343	-16.76109	427.49124	317.63379	-26.00650	521.81915	215.51668	805.30975	-158.36580	122.94074	544.72864	-162.08432	271.54810	547.29614	-131.21059	-65.87814	543.11182	701.61078	81.09387	538.44745	735.31799	
6137	61.360	-25.12209	19.91814	0.06474	513.83856	29.30334	71.24894	-164.15225	-17.28213	427.70541	317.28494	-26.25649	522.03778	215.68591	805.45020	-156.77814	122.85740	544.92194	-160.95409	272.54089	546.71765	-129.39771	-65.74542	541.77527	703.00964	80.78817	537.16522	736.64111	
6138	61.370	-25.62611	20.03529	0.09116	513.22888	29.09768	71.44527	-164.49847	-17.30183	427.75479	316.78687	-26.55009	522.14191	215.91913	805.77307	-154.89812	123.18295	545.20801	-159.80286	272.78641	546.69049	-127.63396	-65.38212	540.72864	704.58289	81.25632	536.20380	737.80377	
6139	61.380	-26.40707	20.26291	0.18845	511.94775	28.19892	71.26464	-165.70937	-16.73978	427.51398	316.47244	-26.56031	522.31500	215.77429	806.16901	-153.31631	123.28365	545.24658	-158.01822	272.85226	547.40472	-126.68116	-65.38900	539.56842	705.64703	81.10078	535.09607	738.92523	
6140	61.390	-27.00283	20.34384	0.33584	512.51312	29.21277	72.10361	-166.43347	-16.66705	427.61539	315.48071	-26.70677	522.48969	215.68004	806.61957	-151.65501	123.30935	545.84235	-157.21004	272.51089	547.82416	-125.40661	-65.23769	538.67053	707.17889	81.35243	534.24414	740.44800	
6141	61.400	-27.36558	20.34846	0.47565	512.07239	29.20788	71.98640	-167.38611	-16.54949	427.60562	314.88940	-26.85829	522.51556	215.54393	807.08295	-150.10974	123.84328	546.07477	-155.83142	273.09641	547.91711	-123.99428	-65.56816	537.54913	707.69708	81.54234	533.20038	741.70660	
6142	61.410	-28.00712	20.44688	0.53687	511.28864	28.82615	72.16668	-167.88055	-16.60139	427.59500	314.24026	-26.71350	522.72656	215.26021	807.38336	-148.48035	123.77788	546.43573	-154.69910	272.18900	548.57666	-122.85674	-65.05241	536.47180	709.47290	81.37891	532.18518	743.02527	
6143	61.420	-28.69316	20.57477	0.51056	510.57059	28.85866	72.29300	-168.24060	-16.66086	427.65186	313.94766	-26.81030	522.49341	215.18303	807.65405	-146.71136	124.06821	546.47491	-153.25586	272.96832	549.03613	-121.56660	-65.24396	535.42596	710.56573	81.47730	531.42126	744.22369	
6144	61.430	-29.16185	20.63134	0.55299	509.99390	28.91476	72.39545	-168.81638	-16.71708	427.77988	312.94485	-26.93496	522.60529	215.01804	807.92303	-145.01476	124.04362	546.88953	-152.03163	273.63644	549.23145	-119.79443	-65.14393	534.23303	712.11676	81.19136	530.50470	745.42065	
6145	61.440	-29.72396	20.70366	0.66757	509.61508	28.79383	72.35802	-169.85110	-16.48484	428.04684	312.10440	-26.97106	522.81207	214.57541	808.42877	-143.63249	124.16589	547.09296	-150.64592	273.11685	550.02899	-118.85897	-65.18800	533.33868	713.04681	81.11520	529.69843	746.64105	
6146	61.450	-30.64657	20.92510	0.76126	508.78610	28.90246	72.63786	-170.18661	-16.40279	428.17560	311.86066	-27.29745	523.47479	214.61053	808.83496	-141.85907	124.13573	547.33136	-149.37276	273.71570	549.96771	-117.13959	-64.99727	532.43298	714.47467	81.43887	529.06970	748.13037	
